<svg width="133" height="28" viewBox="0 0 133 28" fill="none" xmlns="http://www.w3.org/2000/svg">
<path d="M0 8C0 3.58172 3.58172 0 8 0H105V28H8C3.58172 28 0 24.4183 0 20V8Z" fill="black" fill-opacity="0.3"/>
<path d="M14.1065 18.168C13.1225 18.168 12.3345 17.892 11.7425 17.34C11.1505 16.788 10.8545 15.956 10.8545 14.844V12.756C10.8545 11.668 11.1505 10.844 11.7425 10.284C12.3345 9.716 13.1225 9.432 14.1065 9.432C15.0985 9.432 15.8865 9.716 16.4705 10.284C17.0625 10.844 17.3585 11.668 17.3585 12.756V14.844C17.3585 15.956 17.0625 16.788 16.4705 17.34C15.8865 17.892 15.0985 18.168 14.1065 18.168ZM14.1065 16.92C14.7385 16.92 15.2025 16.744 15.4985 16.392C15.8025 16.04 15.9545 15.54 15.9545 14.892V12.696C15.9545 12.04 15.7905 11.54 15.4625 11.196C15.1345 10.852 14.6825 10.68 14.1065 10.68C13.5145 10.68 13.0585 10.856 12.7385 11.208C12.4185 11.56 12.2585 12.056 12.2585 12.696V14.892C12.2585 15.556 12.4105 16.06 12.7145 16.404C13.0265 16.748 13.4905 16.92 14.1065 16.92ZM18.3483 18L20.5563 15.012L18.3843 12.072H19.9923L21.4443 14.124H21.6483L23.1003 12.072H24.6963L22.5243 15.012L24.7323 18H23.1123L21.6483 15.912H21.4443L19.9803 18H18.3483ZM26.7218 18V17.688C26.7218 17.384 26.7458 17.128 26.7938 16.92C26.8418 16.704 26.9458 16.456 27.1058 16.176L30.0098 11.028V10.848H25.4258V9.6H31.4618V11.256L28.3898 16.74C28.2858 16.924 28.2138 17.088 28.1738 17.232C28.1418 17.368 28.1258 17.54 28.1258 17.748V18H26.7218ZM34.7366 18V10.608H34.5326L33.2726 13.356H31.7966L33.5846 9.6H36.1286V18H34.7366ZM40.6207 18.168C40.0447 18.168 39.5247 18.048 39.0607 17.808C38.5967 17.568 38.2287 17.22 37.9567 16.764C37.6927 16.308 37.5607 15.76 37.5607 15.12V14.952C37.5607 14.312 37.6927 13.764 37.9567 13.308C38.2287 12.852 38.5967 12.504 39.0607 12.264C39.5247 12.024 40.0447 11.904 40.6207 11.904C41.1887 11.904 41.6727 12.004 42.0727 12.204C42.4807 12.404 42.8087 12.68 43.0567 13.032C43.3047 13.376 43.4647 13.764 43.5367 14.196L42.2047 14.472C42.1727 14.224 42.0967 14 41.9767 13.8C41.8567 13.592 41.6847 13.428 41.4607 13.308C41.2447 13.188 40.9767 13.128 40.6567 13.128C40.3287 13.128 40.0327 13.2 39.7687 13.344C39.5127 13.48 39.3087 13.688 39.1567 13.968C39.0127 14.248 38.9407 14.584 38.9407 14.976V15.096C38.9407 15.488 39.0127 15.824 39.1567 16.104C39.3087 16.376 39.5127 16.584 39.7687 16.728C40.0327 16.872 40.3287 16.944 40.6567 16.944C41.1447 16.944 41.5127 16.82 41.7607 16.572C42.0167 16.316 42.1767 15.988 42.2407 15.588L43.5727 15.9C43.4767 16.316 43.3047 16.696 43.0567 17.04C42.8087 17.384 42.4807 17.66 42.0727 17.868C41.6727 18.068 41.1887 18.168 40.6207 18.168ZM45.6711 18V17.688C45.6711 17.384 45.6951 17.128 45.7431 16.92C45.7911 16.704 45.8951 16.456 46.0551 16.176L48.9591 11.028V10.848H44.3751V9.6H50.4111V11.256L47.3391 16.74C47.2351 16.924 47.1631 17.088 47.1231 17.232C47.0911 17.368 47.0751 17.54 47.0751 17.748V18H45.6711ZM54.3804 18.168C53.7564 18.168 53.2124 18.052 52.7484 17.82C52.2844 17.58 51.9204 17.248 51.6564 16.824C51.4004 16.4 51.2724 15.908 51.2724 15.348V12.456C51.2724 11.792 51.4084 11.236 51.6804 10.788C51.9524 10.34 52.3244 10.004 52.7964 9.78C53.2764 9.548 53.8284 9.432 54.4524 9.432C55.0764 9.432 55.6124 9.54 56.0604 9.756C56.5164 9.964 56.8644 10.264 57.1044 10.656C57.3524 11.04 57.4764 11.496 57.4764 12.024H56.0604C56.0604 11.656 55.9324 11.34 55.6764 11.076C55.4284 10.812 55.0204 10.68 54.4524 10.68C53.8844 10.68 53.4444 10.832 53.1324 11.136C52.8284 11.432 52.6764 11.844 52.6764 12.372V13.308H52.8804C53.0164 13.124 53.2324 12.956 53.5284 12.804C53.8244 12.644 54.2444 12.564 54.7884 12.564C55.2844 12.564 55.7364 12.668 56.1444 12.876C56.5604 13.084 56.8964 13.388 57.1524 13.788C57.4084 14.188 57.5364 14.668 57.5364 15.228V15.372C57.5364 15.932 57.4044 16.424 57.1404 16.848C56.8764 17.264 56.5084 17.588 56.0364 17.82C55.5644 18.052 55.0124 18.168 54.3804 18.168ZM54.4044 16.92C54.9324 16.92 55.3524 16.78 55.6644 16.5C55.9764 16.212 56.1324 15.832 56.1324 15.36V15.264C56.1324 14.936 56.0604 14.656 55.9164 14.424C55.7804 14.192 55.5804 14.012 55.3164 13.884C55.0604 13.748 54.7564 13.68 54.4044 13.68C54.0604 13.68 53.7564 13.748 53.4924 13.884C53.2284 14.012 53.0244 14.192 52.8804 14.424C52.7444 14.656 52.6764 14.936 52.6764 15.264V15.36C52.6764 15.832 52.8324 16.212 53.1444 16.5C53.4564 16.78 53.8764 16.92 54.4044 16.92ZM59.7593 18.168C59.4553 18.168 59.1993 18.068 58.9913 17.868C58.7913 17.668 58.6913 17.412 58.6913 17.1C58.6913 16.796 58.7913 16.544 58.9913 16.344C59.1993 16.144 59.4553 16.044 59.7593 16.044C60.0633 16.044 60.3153 16.144 60.5153 16.344C60.7153 16.544 60.8153 16.8 60.8153 17.112C60.8153 17.424 60.7153 17.68 60.5153 17.88C60.3153 18.072 60.0633 18.168 59.7593 18.168ZM63.2046 18.168C62.9006 18.168 62.6446 18.068 62.4366 17.868C62.2366 17.668 62.1366 17.412 62.1366 17.1C62.1366 16.796 62.2366 16.544 62.4366 16.344C62.6446 16.144 62.9006 16.044 63.2046 16.044C63.5086 16.044 63.7606 16.144 63.9606 16.344C64.1606 16.544 64.2606 16.8 64.2606 17.112C64.2606 17.424 64.1606 17.68 63.9606 17.88C63.7606 18.072 63.5086 18.168 63.2046 18.168ZM66.6499 18.168C66.3459 18.168 66.0899 18.068 65.8819 17.868C65.6819 17.668 65.5819 17.412 65.5819 17.1C65.5819 16.796 65.6819 16.544 65.8819 16.344C66.0899 16.144 66.3459 16.044 66.6499 16.044C66.9539 16.044 67.2059 16.144 67.4059 16.344C67.6059 16.544 67.7059 16.8 67.7059 17.112C67.7059 17.424 67.6059 17.68 67.4059 17.88C67.2059 18.072 66.9539 18.168 66.6499 18.168ZM71.9438 18.168C71.3198 18.168 70.7798 18.064 70.3238 17.856C69.8758 17.64 69.5278 17.34 69.2798 16.956C69.0318 16.564 68.9078 16.104 68.9078 15.576H70.3238C70.3238 15.944 70.4518 16.26 70.7078 16.524C70.9718 16.788 71.3838 16.92 71.9438 16.92C72.5118 16.92 72.9478 16.772 73.2518 16.476C73.5638 16.172 73.7198 15.756 73.7198 15.228V14.292H73.5158C73.3718 14.476 73.1558 14.648 72.8678 14.808C72.5798 14.96 72.1558 15.036 71.5958 15.036C71.1078 15.036 70.6558 14.932 70.2398 14.724C69.8238 14.516 69.4878 14.212 69.2318 13.812C68.9838 13.412 68.8598 12.932 68.8598 12.372V12.228C68.8598 11.66 68.9918 11.168 69.2558 10.752C69.5198 10.336 69.8878 10.012 70.3598 9.78C70.8318 9.548 71.3798 9.432 72.0038 9.432C72.6278 9.432 73.1718 9.552 73.6358 9.792C74.1078 10.024 74.4718 10.352 74.7278 10.776C74.9838 11.2 75.1118 11.692 75.1118 12.252V15.144C75.1118 15.808 74.9758 16.364 74.7038 16.812C74.4398 17.26 74.0678 17.6 73.5878 17.832C73.1158 18.056 72.5678 18.168 71.9438 18.168ZM71.9798 13.92C72.3398 13.92 72.6478 13.856 72.9038 13.728C73.1598 13.592 73.3598 13.408 73.5038 13.176C73.6478 12.936 73.7198 12.656 73.7198 12.336V12.24C73.7198 11.76 73.5638 11.38 73.2518 11.1C72.9398 10.82 72.5158 10.68 71.9798 10.68C71.4518 10.68 71.0318 10.82 70.7198 11.1C70.4078 11.38 70.2518 11.76 70.2518 12.24V12.336C70.2518 12.656 70.3238 12.936 70.4678 13.176C70.6118 13.408 70.8118 13.592 71.0678 13.728C71.3318 13.856 71.6358 13.92 71.9798 13.92ZM77.1476 18V17.688C77.1476 17.384 77.1716 17.128 77.2196 16.92C77.2676 16.704 77.3716 16.456 77.5316 16.176L80.4356 11.028V10.848H75.8516V9.6H81.8876V11.256L78.8156 16.74C78.7116 16.924 78.6396 17.088 78.5996 17.232C78.5676 17.368 78.5516 17.54 78.5516 17.748V18H77.1476ZM85.857 18.168C85.233 18.168 84.689 18.052 84.225 17.82C83.761 17.58 83.397 17.248 83.133 16.824C82.877 16.4 82.749 15.908 82.749 15.348V12.456C82.749 11.792 82.885 11.236 83.157 10.788C83.429 10.34 83.801 10.004 84.273 9.78C84.753 9.548 85.305 9.432 85.929 9.432C86.553 9.432 87.089 9.54 87.537 9.756C87.993 9.964 88.341 10.264 88.581 10.656C88.829 11.04 88.953 11.496 88.953 12.024H87.537C87.537 11.656 87.409 11.34 87.153 11.076C86.905 10.812 86.497 10.68 85.929 10.68C85.361 10.68 84.921 10.832 84.609 11.136C84.305 11.432 84.153 11.844 84.153 12.372V13.308H84.357C84.493 13.124 84.709 12.956 85.005 12.804C85.301 12.644 85.721 12.564 86.265 12.564C86.761 12.564 87.213 12.668 87.621 12.876C88.037 13.084 88.373 13.388 88.629 13.788C88.885 14.188 89.013 14.668 89.013 15.228V15.372C89.013 15.932 88.881 16.424 88.617 16.848C88.353 17.264 87.985 17.588 87.513 17.82C87.041 18.052 86.489 18.168 85.857 18.168ZM85.881 16.92C86.409 16.92 86.829 16.78 87.141 16.5C87.453 16.212 87.609 15.832 87.609 15.36V15.264C87.609 14.936 87.537 14.656 87.393 14.424C87.257 14.192 87.057 14.012 86.793 13.884C86.537 13.748 86.233 13.68 85.881 13.68C85.537 13.68 85.233 13.748 84.969 13.884C84.705 14.012 84.501 14.192 84.357 14.424C84.221 14.656 84.153 14.936 84.153 15.264V15.36C84.153 15.832 84.309 16.212 84.621 16.5C84.933 16.78 85.353 16.92 85.881 16.92ZM91.4393 18V13.212H89.8553V12.072H91.4393V10.872C91.4393 10.48 91.5513 10.172 91.7753 9.948C92.0073 9.716 92.3113 9.6 92.6873 9.6H94.2233V10.74H93.1433C92.9193 10.74 92.8073 10.86 92.8073 11.1V12.072H94.4393V13.212H92.8073V18H91.4393Z" fill="#4D66EB"/>
<path d="M105 0H125C129.418 0 133 3.58172 133 8V20C133 24.4183 129.418 28 125 28H105V0Z" fill="black" fill-opacity="0.4"/>
<path fill-rule="evenodd" clip-rule="evenodd" d="M112.45 9.8002C112.45 8.50233 113.502 7.4502 114.8 7.4502H116.8C117.214 7.4502 117.55 7.78598 117.55 8.2002C117.55 8.61441 117.214 8.9502 116.8 8.9502H114.8C114.331 8.9502 113.95 9.33075 113.95 9.8002V18.2002C113.95 18.6697 114.331 19.0502 114.8 19.0502H123.2C123.669 19.0502 124.05 18.6697 124.05 18.2002V16.2002C124.05 15.786 124.386 15.4502 124.8 15.4502C125.214 15.4502 125.55 15.786 125.55 16.2002V18.2002C125.55 19.4981 124.498 20.5502 123.2 20.5502H114.8C113.502 20.5502 112.45 19.4981 112.45 18.2002V9.8002ZM120.45 8.2002C120.45 7.78598 120.786 7.4502 121.2 7.4502H124.8C125.214 7.4502 125.55 7.78598 125.55 8.2002V11.8002C125.55 12.2144 125.214 12.5502 124.8 12.5502C124.386 12.5502 124.05 12.2144 124.05 11.8002V10.0109L119.33 14.7305C119.037 15.0234 118.563 15.0234 118.27 14.7305C117.977 14.4376 117.977 13.9628 118.27 13.6699L122.989 8.9502H121.2C120.786 8.9502 120.45 8.61441 120.45 8.2002Z" fill="#4D66EB"/>
</svg>
