<svg width="32" height="32" viewBox="0 0 32 32" fill="none" xmlns="http://www.w3.org/2000/svg">
<path fill-rule="evenodd" clip-rule="evenodd" d="M11 16C11 16.8284 10.3284 17.5 9.5 17.5C8.67157 17.5 8 16.8284 8 16C8 15.1716 8.67157 14.5 9.5 14.5C10.3284 14.5 11 15.1716 11 16ZM17.5 16C17.5 16.8284 16.8284 17.5 16 17.5C15.1716 17.5 14.5 16.8284 14.5 16C14.5 15.1716 15.1716 14.5 16 14.5C16.8284 14.5 17.5 15.1716 17.5 16ZM22.5 17.5C23.3284 17.5 24 16.8284 24 16C24 15.1716 23.3284 14.5 22.5 14.5C21.6716 14.5 21 15.1716 21 16C21 16.8284 21.6716 17.5 22.5 17.5Z" fill="black" fill-opacity="0.4"/>
<rect x="0.5" y="0.5" width="31" height="31" rx="7.5" stroke="black" stroke-opacity="0.1"/>
</svg>
