<svg width="42" height="42" viewBox="0 0 42 42" fill="none" xmlns="http://www.w3.org/2000/svg">
<path d="M0 12C0 5.37258 5.37258 0 12 0H30C36.6274 0 42 5.37258 42 12V30C42 36.6274 36.6274 42 30 42H12C5.37258 42 0 36.6274 0 30V12Z" fill="white" fill-opacity="0.1"/>
<ellipse cx="14.3333" cy="21.3337" rx="1.66667" ry="1.66667" fill="white"/>
<circle cx="21.3337" cy="21.3337" r="1.66667" fill="white"/>
<circle cx="28.3333" cy="21.3337" r="1.66667" fill="white"/>
<path d="M12 1H30V-1H12V1ZM41 12V30H43V12H41ZM30 41H12V43H30V41ZM1 30V12H-1V30H1ZM12 41C5.92487 41 1 36.0751 1 30H-1C-1 37.1797 4.8203 43 12 43V41ZM41 30C41 36.0751 36.0751 41 30 41V43C37.1797 43 43 37.1797 43 30H41ZM30 1C36.0751 1 41 5.92487 41 12H43C43 4.8203 37.1797 -1 30 -1V1ZM12 -1C4.8203 -1 -1 4.8203 -1 12H1C1 5.92487 5.92487 1 12 1V-1Z" fill="white" fill-opacity="0.1"/>
</svg>
