<svg width="15" height="14" viewBox="0 0 15 14" fill="none" xmlns="http://www.w3.org/2000/svg">
<path d="M11.3761 14.0009H1.75017C1.286 14.0009 0.840835 13.8165 0.512614 13.4883C0.184393 13.1601 0 12.7149 0 12.2507V2.62477C0 2.1606 0.184393 1.71543 0.512614 1.38721C0.840835 1.05899 1.286 0.874598 1.75017 0.874598H5.25052V2.62477H1.75017V12.2507H11.3761V8.75038H13.1263V12.2507C13.1263 12.7149 12.9419 13.1601 12.6137 13.4883C12.2855 13.8165 11.8403 14.0009 11.3761 14.0009ZM6.73817 8.49398L5.50429 7.2566L11.0112 1.74968H7.87578V-0.000488281H14.0014V6.12512H12.2512V2.98793L6.73817 8.49398Z" fill="black"/>
</svg>
