<svg width="20" height="20" viewBox="0 0 20 20" fill="none" xmlns="http://www.w3.org/2000/svg">
<path fill-rule="evenodd" clip-rule="evenodd" d="M15.8089 2.17662C15.1254 1.49321 14.0174 1.49321 13.334 2.17663L2.27688 13.2338C2.00914 13.5016 1.83546 13.8489 1.78192 14.2238L1.25764 17.8937C1.22425 18.1274 1.30284 18.3632 1.46976 18.5301C1.63668 18.697 1.87246 18.7756 2.10615 18.7422L5.77614 18.218C6.151 18.1645 6.49838 17.9908 6.76614 17.723L17.8232 6.66585C18.5066 5.98243 18.5066 4.87439 17.8232 4.19098L15.8089 2.17662ZM14.3946 3.23729C14.4923 3.13966 14.6506 3.13965 14.7482 3.23729L16.7626 5.25164C16.8602 5.34927 16.8602 5.50756 16.7626 5.60519L14.7143 7.65348L12.3464 5.28557L14.3946 3.23729ZM11.2857 6.34623L3.33755 14.2945C3.2993 14.3327 3.27449 14.3823 3.26684 14.4359L2.88398 17.1159L5.56404 16.7331C5.61759 16.7255 5.66722 16.7006 5.70547 16.6624L13.6536 8.71415L11.2857 6.34623Z" fill="white"/>
</svg>
