<svg width="16" height="16" viewBox="0 0 16 16" fill="none" xmlns="http://www.w3.org/2000/svg">
<path d="M8.00009 3.99375C5.7833 3.99375 3.99423 5.78281 3.99423 7.99961C3.99423 10.2164 5.7833 12.0055 8.00009 12.0055C10.2169 12.0055 12.006 10.2164 12.006 7.99961C12.006 5.78281 10.2169 3.99375 8.00009 3.99375ZM8.00009 10.6031C6.5665 10.6031 5.39658 9.4332 5.39658 7.99961C5.39658 6.56601 6.5665 5.39609 8.00009 5.39609C9.43369 5.39609 10.6036 6.56601 10.6036 7.99961C10.6036 9.4332 9.43369 10.6031 8.00009 10.6031ZM12.17 2.89609C11.6524 2.89609 11.2345 3.31406 11.2345 3.83164C11.2345 4.34921 11.6524 4.76718 12.17 4.76718C12.6876 4.76718 13.1056 4.35117 13.1056 3.83164C13.1057 3.70873 13.0816 3.58701 13.0347 3.47344C12.9877 3.35986 12.9188 3.25666 12.8319 3.16976C12.745 3.08286 12.6418 3.01395 12.5282 2.96699C12.4146 2.92003 12.2929 2.89593 12.17 2.89609ZM15.8087 7.99961C15.8087 6.92148 15.8185 5.85312 15.7579 4.77695C15.6974 3.52695 15.4122 2.41757 14.4981 1.50351C13.5821 0.587495 12.4747 0.304292 11.2247 0.243745C10.1466 0.183198 9.07822 0.192964 8.00204 0.192964C6.92392 0.192964 5.85556 0.183198 4.77939 0.243745C3.52939 0.304292 2.42001 0.589448 1.50595 1.50351C0.589936 2.41953 0.306733 3.52695 0.246186 4.77695C0.18564 5.85507 0.195405 6.92343 0.195405 7.99961C0.195405 9.07578 0.18564 10.1461 0.246186 11.2223C0.306733 12.4723 0.59189 13.5816 1.50595 14.4957C2.42197 15.4117 3.52939 15.6949 4.77939 15.7555C5.85751 15.816 6.92587 15.8062 8.00204 15.8062C9.08017 15.8062 10.1485 15.816 11.2247 15.7555C12.4747 15.6949 13.5841 15.4098 14.4981 14.4957C15.4142 13.5797 15.6974 12.4723 15.7579 11.2223C15.8204 10.1461 15.8087 9.07773 15.8087 7.99961ZM14.0899 12.6051C13.9474 12.9605 13.7755 13.2262 13.5001 13.4996C13.2247 13.775 12.961 13.9469 12.6056 14.0894C11.5782 14.4977 9.13876 14.4059 8.00009 14.4059C6.86142 14.4059 4.42001 14.4977 3.39267 14.0914C3.0372 13.9488 2.77158 13.7769 2.49814 13.5016C2.22275 13.2262 2.05087 12.9625 1.9083 12.607C1.50205 11.5777 1.59384 9.13828 1.59384 7.99961C1.59384 6.86093 1.50205 4.41953 1.9083 3.39218C2.05087 3.03671 2.22275 2.77109 2.49814 2.49765C2.77353 2.22421 3.0372 2.05039 3.39267 1.90781C4.42001 1.50156 6.86142 1.59335 8.00009 1.59335C9.13876 1.59335 11.5802 1.50156 12.6075 1.90781C12.963 2.05039 13.2286 2.22226 13.502 2.49765C13.7774 2.77304 13.9493 3.03671 14.0919 3.39218C14.4981 4.41953 14.4063 6.86093 14.4063 7.99961C14.4063 9.13828 14.4981 11.5777 14.0899 12.6051Z" fill="white" fill-opacity="0.4" />
</svg>
