<svg width="8" height="6" viewBox="0 0 8 6" fill="none" xmlns="http://www.w3.org/2000/svg">
<path d="M7.53057 2.03057C7.82347 1.73768 7.82347 1.26281 7.53057 0.969914C7.23768 0.677021 6.76281 0.677021 6.46991 0.969914L7.53057 2.03057ZM4.00037 4.50012L3.47001 5.03043C3.61067 5.17109 3.80143 5.25012 4.00035 5.25012C4.19927 5.25013 4.39004 5.17111 4.5307 5.03045L4.00037 4.50012ZM1.53084 0.969692C1.23796 0.676786 0.763085 0.676767 0.47018 0.969648C0.177275 1.26253 0.177255 1.7374 0.470137 2.03031L1.53084 0.969692ZM6.46991 0.969914L3.47004 3.96979L4.5307 5.03045L7.53057 2.03057L6.46991 0.969914ZM4.53072 3.96981L1.53084 0.969692L0.470137 2.03031L3.47001 5.03043L4.53072 3.96981Z" fill="black" fill-opacity="0.4"/>
</svg>
