<svg width="20" height="20" viewBox="0 0 20 20" fill="none" xmlns="http://www.w3.org/2000/svg">
<path fill-rule="evenodd" clip-rule="evenodd" d="M5.8335 2.1665C6.24771 2.1665 6.5835 2.50229 6.5835 2.9165V17.0832C6.5835 17.2199 6.54691 17.3481 6.483 17.4585C6.45766 17.5023 6.42752 17.5441 6.39257 17.5831C6.38275 17.5941 6.3726 17.6048 6.36215 17.6152C6.06914 17.9066 5.59539 17.9061 5.303 17.6137L1.96967 14.2803C1.67678 13.9874 1.67678 13.5126 1.96967 13.2197C2.26256 12.9268 2.73744 12.9268 3.03033 13.2197L5.0835 15.2728V2.9165C5.0835 2.50229 5.41928 2.1665 5.8335 2.1665ZM9.5835 2.5835C9.16928 2.5835 8.8335 2.91928 8.8335 3.3335C8.8335 3.74771 9.16928 4.0835 9.5835 4.0835H17.9168C18.331 4.0835 18.6668 3.74771 18.6668 3.3335C18.6668 2.91928 18.331 2.5835 17.9168 2.5835H9.5835ZM9.5835 6.75C9.16928 6.75 8.8335 7.08579 8.8335 7.5C8.8335 7.91421 9.16928 8.25 9.5835 8.25H16.2502C16.6644 8.25 17.0002 7.91421 17.0002 7.5C17.0002 7.08579 16.6644 6.75 16.2502 6.75H9.5835ZM8.8335 11.6665C8.8335 11.2523 9.16928 10.9165 9.5835 10.9165H14.5835C14.9977 10.9165 15.3335 11.2523 15.3335 11.6665C15.3335 12.0807 14.9977 12.4165 14.5835 12.4165H9.5835C9.16928 12.4165 8.8335 12.0807 8.8335 11.6665ZM9.5835 15.0835C9.16928 15.0835 8.8335 15.4193 8.8335 15.8335C8.8335 16.2477 9.16928 16.5835 9.5835 16.5835H12.9168C13.331 16.5835 13.6668 16.2477 13.6668 15.8335C13.6668 15.4193 13.331 15.0835 12.9168 15.0835H9.5835Z" fill="black"/>
</svg>
