<svg width="18" height="18" viewBox="0 0 18 18" fill="none" xmlns="http://www.w3.org/2000/svg">
<path fill-rule="evenodd" clip-rule="evenodd" d="M6.33334 17.7504C6.3242 17.7504 6.31509 17.7502 6.30602 17.7499H3.00016C1.48138 17.7499 0.250164 16.5187 0.250164 14.9999V11.7122C0.249245 11.697 0.248779 11.6817 0.248779 11.6663C0.248779 11.6508 0.249245 11.6355 0.250164 11.6203V6.37855C0.249245 6.36335 0.248779 6.34803 0.248779 6.3326C0.248779 6.31717 0.249245 6.30185 0.250164 6.28665V2.99992C0.250164 1.48114 1.48138 0.24992 3.00016 0.24992H6.29635C6.3086 0.249325 6.32094 0.249023 6.33334 0.249023C6.34575 0.249023 6.35808 0.249325 6.37034 0.24992H11.63C11.6423 0.249325 11.6546 0.249023 11.667 0.249023C11.6794 0.249023 11.6917 0.249325 11.704 0.24992H15.0002C16.5189 0.24992 17.7502 1.48114 17.7502 2.99992V6.3326V11.6663V14.9999C17.7502 16.5187 16.5189 17.7499 15.0002 17.7499H11.6943C11.6853 17.7502 11.6761 17.7504 11.667 17.7504C11.6579 17.7504 11.6487 17.7502 11.6397 17.7499H6.36066C6.35159 17.7502 6.34249 17.7504 6.33334 17.7504ZM16.2502 5.5826V2.99992C16.2502 2.30956 15.6905 1.74992 15.0002 1.74992H12.417V5.5826L16.2502 5.5826ZM12.417 7.0826L16.2502 7.0826V10.9163H12.417V7.0826ZM10.917 5.5826V1.74992H7.08334V5.5826L10.917 5.5826ZM5.58334 5.5826V1.74992H3.00016C2.30981 1.74992 1.75016 2.30956 1.75016 2.99992V5.5826L5.58334 5.5826ZM1.75016 7.0826L5.58334 7.0826V10.9163L1.75016 10.9163V7.0826ZM7.08334 7.0826L10.917 7.0826V10.9163H7.08334V7.0826ZM7.08334 12.4163H10.917V16.2499H7.08334L7.08334 12.4163ZM12.417 12.4163V16.2499H15.0002C15.6905 16.2499 16.2502 15.6903 16.2502 14.9999V12.4163H12.417ZM1.75016 12.4163L5.58334 12.4163L5.58334 16.2499H3.00016C2.30981 16.2499 1.75016 15.6903 1.75016 14.9999V12.4163Z" fill="black" fill-opacity="0.2"/>
</svg>
