<svg width="16" height="16" viewBox="0 0 16 16" fill="none" xmlns="http://www.w3.org/2000/svg">
<path fill-rule="evenodd" clip-rule="evenodd" d="M8.54959 0.239662C8.40769 0.0868364 8.20855 0 8 0C7.79145 0 7.59231 0.0868364 7.45041 0.239662L4.20041 3.73966C3.91855 4.04319 3.93613 4.51774 4.23966 4.7996C4.54319 5.08145 5.01774 5.06387 5.29959 4.76034L7.25 2.6599V10.25C7.25 10.6642 7.58579 11 8 11C8.41421 11 8.75 10.6642 8.75 10.25V2.6599L10.7004 4.76034C10.9823 5.06387 11.4568 5.08145 11.7603 4.7996C12.0639 4.51774 12.0814 4.04319 11.7996 3.73966L8.54959 0.239662ZM0.75 10C1.16421 10 1.5 10.3358 1.5 10.75V12.25C1.5 13.4927 2.50736 14.5 3.75 14.5H12.25C13.4927 14.5 14.5 13.4927 14.5 12.25V10.75C14.5 10.3358 14.8358 10 15.25 10C15.6642 10 16 10.3358 16 10.75V12.25C16 14.3211 14.3211 16 12.25 16H3.75C1.67894 16 0 14.3211 0 12.25V10.75C0 10.3358 0.335786 10 0.75 10Z" fill="white"/>
</svg>
