<svg width="16" height="16" viewBox="0 0 16 16" fill="none" xmlns="http://www.w3.org/2000/svg">
<path fill-rule="evenodd" clip-rule="evenodd" d="M7.99971 14.8571C8.08657 14.8571 8.26501 14.8209 8.53146 14.5578C8.80289 14.29 9.09969 13.8457 9.37368 13.2066C9.65212 12.5567 9.88376 11.7597 10.0438 10.8571H5.95566C6.11573 11.7598 6.34736 12.5567 6.6258 13.2066C6.89978 13.8457 7.19657 14.29 7.46802 14.5578C7.73447 14.8209 7.91292 14.8571 7.99977 14.8571H7.99971ZM5.79817 9.71422C5.74345 9.16793 5.71399 8.59406 5.71399 7.99993C5.71399 7.40581 5.74345 6.83193 5.79817 6.28565H10.2011C10.2558 6.83193 10.2853 7.40581 10.2853 7.99993C10.2853 8.59406 10.2558 9.16793 10.2011 9.71422H5.79817ZM11.2032 10.8571C10.9551 12.3708 10.5156 13.6638 9.9536 14.5746C11.8587 14.0093 13.4174 12.6387 14.2351 10.8571H11.2032ZM14.6409 9.71422H11.3495C11.4012 9.16193 11.4283 8.58834 11.4283 7.99993C11.4283 7.41153 11.4012 6.83794 11.3495 6.28565H14.6409C14.7819 6.8336 14.8569 7.40797 14.8569 7.99993C14.8569 8.5919 14.7819 9.16627 14.6409 9.71422ZM4.65009 9.71422H1.35866C1.21759 9.16627 1.14259 8.5919 1.14259 7.99993C1.14259 7.40797 1.21759 6.8336 1.35866 6.28565H4.65009C4.59831 6.83794 4.57114 7.41153 4.57114 7.99993C4.57114 8.58834 4.5983 9.16193 4.65009 9.71422ZM1.76438 10.8571H4.79628C5.04437 12.3708 5.48402 13.6638 6.04591 14.5746C4.1408 14.0093 2.58207 12.6387 1.76444 10.8571H1.76438ZM5.95572 5.14279H10.0439C9.88381 4.2401 9.65218 3.44317 9.37375 2.79331C9.09977 2.15416 8.80297 1.70988 8.53153 1.44202C8.26507 1.17901 8.08663 1.14279 7.99977 1.14279C7.91292 1.14279 7.73447 1.17901 7.46802 1.44202C7.19659 1.70988 6.89979 2.15416 6.6258 2.79331C6.34735 3.44317 6.11572 4.24013 5.95566 5.14279H5.95572ZM11.2034 5.14279H14.2354C13.4177 3.36127 11.8589 1.9905 9.95393 1.42524C10.5159 2.3361 10.9555 3.62893 11.2036 5.14279H11.2034ZM6.04617 1.42524C5.48431 2.3361 5.04464 3.62893 4.79654 5.14279H1.76464C2.58224 3.36127 4.14103 1.9905 6.04611 1.42524H6.04617ZM8 0C12.4183 0 16 3.58171 16 8C16 12.4183 12.4183 16 8 16C3.58171 16 0 12.4183 0 8C0 3.58171 3.58171 0 8 0Z" fill="white" fill-opacity="0.4" />
</svg>
